#!OML:ASF I:\golf\golf\golf 2\Subject 1\2002-09-07\Subject1.ASF
:FULLY-SPECIFIED
:DEGREES
48
root -11.0621 17.8867 4.70531 -7.76386 82.8092 -26.7964
lowerback 4.83626 1.52224 -2.19508
upperback 5.37608 2.07093 3.97605
thorax 2.62438 0.958759 5.30681
lowerneck -13.4883 -1.18595 1.40036
upperneck 41.3221 2.03057 -4.94395
head 17.569 0.962498 -1.97454
rclavicle -2.10712e-014 -8.74653e-015
rhumerus -13.1449 24.2779 -98.8893
rradius 45.8393
rwrist -50.6854
rhand -28.2015 -8.37891
rfingers 7.12502
rthumb -1.58055 -38.3528
lclavicle -2.10712e-014 -8.74653e-015
lhumerus -9.55407 -44.7732 105.349
lradius 44.7068
lwrist 51.571
lhand -13.1942 67.5032
lfingers 7.12502
lthumb -167.094 82.9158
rfemur -35.6941 -2.80442 16.0022
rtibia 31.2598
rfoot -8.55822 -4.88132
rtoes -8.58965
lfemur -33.761 5.79233 -10.4401
ltibia 27.8392
lfoot -9.18938 -1.42534
ltoes -18.0519
49
root -11.0608 17.8865 4.70665 -8.15233 82.8185 -27.2097
lowerback 4.81275 1.53755 -2.15977
upperback 5.38131 2.09261 3.99583
thorax 2.64103 0.970252 5.30772
lowerneck -13.536 -1.20048 1.38476
upperneck 41.3408 2.00678 -4.92407
head 17.5906 0.952875 -1.96763
rclavicle -6.36111e-015 6.36111e-015
rhumerus -13.1707 24.3342 -98.85
rradius 45.8995
rwrist -50.6727
rhand -28.2234 -8.38928
rfingers 7.12502
rthumb -1.60165 -38.363
lclavicle -6.36111e-015 6.36111e-015
lhumerus -9.57124 -44.8192 105.324
lradius 44.6856
lwrist 51.4155
lhand -12.9592 67.2989
lfingers 7.12502
lthumb -166.867 83.1347
rfemur -35.6913 -2.80356 16.0572
rtibia 31.2265
rfoot -8.57997 -4.87927
rtoes -8.10135
lfemur -33.8075 5.83699 -10.4053
ltibia 27.8792
lfoot -9.15983 -1.48916
ltoes -17.7709
50
root -11.0604 17.8855 4.70732 -9.00609 82.8141 -28.1106
lowerback 4.80057 1.53294 -2.01523
upperback 5.36649 2.09044 4.00105
thorax 2.63648 0.974209 5.23091
lowerneck -13.5713 -1.21272 1.39246
upperneck 41.3564 1.97481 -4.89872
head 17.6066 0.943907 -1.96391
rclavicle -2.18663e-014 -5.64548e-014
rhumerus -13.1595 24.2878 -98.8982
rradius 45.8647
rwrist -50.512
rhand -28.2097 -8.42321
rfingers 7.12502
rthumb -1.58842 -38.397
lclavicle -2.18663e-014 -5.64548e-014
lhumerus -9.54917 -44.8737 105.254
lradius 44.6771
lwrist 51.3941
lhand -12.8787 67.4352
lfingers 7.12502
lthumb -166.79 83.0033
rfemur -35.7155 -2.80912 16.1872
rtibia 31.1956
rfoot -8.59563 -4.85551
rtoes -8.07777
lfemur -33.8732 5.92171 -10.3107
ltibia 27.8976
lfoot -9.14136 -1.54332
ltoes -17.8534
51
root -11.0596 17.886 4.7075 -9.47621 82.7993 -28.5981
lowerback 4.80729 1.53296 -1.92292
upperback 5.35929 2.093 3.99227
thorax 2.6278 0.978962 5.16861
lowerneck -13.5847 -1.21659 1.42452
upperneck 41.3555 1.95413 -4.8932
head 17.6082 0.940696 -1.97117
rclavicle -1.78906e-014 -2.70347e-014
rhumerus -13.1462 24.3322 -98.9291
rradius 45.8737
rwrist -50.5156
rhand -28.2625 -8.39187
rfingers 7.12502
rthumb -1.63945 -38.3653
lclavicle -1.78906e-014 -2.70347e-014
lhumerus -9.57339 -44.9086 105.24
lradius 44.6787
lwrist 51.3029
lhand -12.9194 67.4844
lfingers 7.12502
lthumb -166.829 82.9516
rfemur -35.7153 -2.7872 16.2511
rtibia 31.166
rfoot -8.56693 -4.81478
rtoes -7.77564
lfemur -33.8844 5.95195 -10.2522
ltibia 27.8893
lfoot -9.12828 -1.5438
ltoes -18.3053
52
root -11.0586 17.8879 4.70828 -9.07506 82.806 -28.1792
lowerback 4.82429 1.54504 -1.959
upperback 5.36313 2.10789 3.95787
thorax 2.62076 0.985674 5.15203
lowerneck -13.5766 -1.21681 1.46065
upperneck 41.3471 1.93805 -4.8871
head 17.6001 0.940603 -1.97756
rclavicle -8.74653e-015 -2.22639e-014
rhumerus -13.1477 24.3611 -98.942
rradius 45.8931
rwrist -50.5661
rhand -28.287 -8.34019
rfingers 7.12502
rthumb -1.66311 -38.3135
lclavicle -8.74653e-015 -2.22639e-014
lhumerus -9.61865 -44.9221 105.265
lradius 44.6475
lwrist 51.0994
lhand -12.8589 67.3974
lfingers 7.12502
lthumb -166.771 83.0424
rfemur -35.6755 -2.66242 16.1472
rtibia 31.1326
rfoot -8.52812 -4.93474
rtoes -7.50352
lfemur -33.8465 5.91129 -10.2973
ltibia 27.869
lfoot -9.12909 -1.53639
ltoes -18.3123
53
root -11.0582 17.8902 4.70878 -8.81409 82.8116 -27.9293
lowerback 4.80575 1.57031 -1.96028
upperback 5.36129 2.14112 3.92732
thorax 2.62663 1.00237 5.1201
lowerneck -13.5534 -1.24899 1.47475
upperneck 41.3264 1.87532 -4.87215
head 17.5777 0.919716 -1.98365
rclavicle -3.57812e-015 -5.56597e-015
rhumerus -13.1481 24.2914 -98.9561
rradius 45.8987
rwrist -50.5938
rhand -28.3233 -8.34668
rfingers 7.12502
rthumb -1.6982 -38.3197
lclavicle -3.57812e-015 -5.56597e-015
lhumerus -9.62992 -44.9718 105.306
lradius 44.5701
lwrist 50.979
lhand -12.8162 67.3912
lfingers 7.12502
lthumb -166.73 83.0512
rfemur -35.6659 -2.59883 16.0918
rtibia 31.0937
rfoot -8.488 -5.04933
rtoes -7.84883
lfemur -33.8391 5.87119 -10.3151
ltibia 27.8405
lfoot -9.13708 -1.50786
ltoes -17.8647
54
root -11.0574 17.8916 4.70885 -8.793 82.8105 -27.9491
lowerback 4.74931 1.58037 -1.94917
upperback 5.3608 2.15446 3.92147
thorax 2.65677 1.00869 5.10907
lowerneck -13.5525 -1.26435 1.49157
upperneck 41.3158 1.84576 -4.87589
head 17.5696 0.90971 -1.99348
rclavicle -1.74931e-014 -9.54166e-015
rhumerus -13.1485 24.2833 -98.9768
rradius 45.9092
rwrist -50.6132
rhand -28.4455 -8.30714
rfingers 7.12502
rthumb -1.81618 -38.2792
lclavicle -1.74931e-014 -9.54166e-015
lhumerus -9.59067 -45.0253 105.304
lradius 44.4981
lwrist 50.9123
lhand -13.0087 67.4242
lfingers 7.12502
lthumb -166.915 83.0062
rfemur -35.6895 -2.59432 16.0959
rtibia 31.0536
rfoot -8.44824 -5.10425
rtoes -8.32769
lfemur -33.8677 5.8655 -10.3136
ltibia 27.8127
lfoot -9.12064 -1.46289
ltoes -17.9984
55
root -11.0566 17.8926 4.70985 -8.91454 82.7886 -28.0951
lowerback 4.7521 1.5987 -1.90667
upperback 5.33729 2.17945 3.89879
thorax 2.63005 1.02341 5.05946
lowerneck -13.5449 -1.25128 1.54555
upperneck 41.3498 1.84009 -4.84069
head 17.5862 0.921897 -1.98883
rclavicle 8.34896e-015 -4.77083e-015
rhumerus -13.2056 24.2554 -99.0294
rradius 45.9134
rwrist -50.5906
rhand -28.4912 -8.24921
rfingers 7.12502
rthumb -1.86029 -38.2208
lclavicle 8.34896e-015 -4.77083e-015
lhumerus -9.64284 -45.1183 105.282
lradius 44.5372
lwrist 50.9096
lhand -13.0926 67.4811
lfingers 7.12502
lthumb -166.996 82.9442
rfemur -35.6892 -2.53685 16.1151
rtibia 31.0155
rfoot -8.41362 -5.15977
rtoes -8.63445
lfemur -33.8814 5.90882 -10.3042
ltibia 27.7995
lfoot -9.12281 -1.43028
ltoes -18.5626
56
root -11.0557 17.8938 4.71038 -9.42779 82.7648 -28.6138
lowerback 4.78676 1.62437 -1.78411
upperback 5.32037 2.21686 3.86998
thorax 2.59391 1.04742 4.95664
lowerneck -13.5622 -1.24912 1.59109
upperneck 41.3876 1.80383 -4.7687
head 17.6092 0.924823 -1.97146
rclavicle 5.96354e-015 -3.10104e-014
rhumerus -13.2696 24.225 -99.0611
rradius 45.9676
rwrist -50.6502
rhand -28.5124 -8.25057
rfingers 7.12502
rthumb -1.88081 -38.222
lclavicle 5.96354e-015 -3.10104e-014
lhumerus -9.70858 -45.2482 105.266
lradius 44.5655
lwrist 50.9417
lhand -13.0466 67.4912
lfingers 7.12502
lthumb -166.952 82.9369
rfemur -35.6638 -2.51201 16.1944
rtibia 30.9806
rfoot -8.43637 -5.12507
rtoes -8.59526
lfemur -33.877 5.96164 -10.2452
ltibia 27.7935
lfoot -9.16455 -1.43079
ltoes -18.8393
57
root -11.0551 17.895 4.71053 -9.51439 82.7531 -28.7045
lowerback 4.79525 1.63601 -1.74487
upperback 5.33249 2.23363 3.85372
thorax 2.60191 1.05718 4.91682
lowerneck -13.6066 -1.25956 1.60369
upperneck 41.3817 1.77569 -4.75988
head 17.6157 0.915209 -1.97517
rclavicle 2.66371e-014 8.74653e-015
rhumerus -13.2659 24.2444 -99.068
rradius 46.0271
rwrist -50.7251
rhand -28.6088 -8.24461
rfingers 7.12502
rthumb -1.97391 -38.2152
lclavicle 2.66371e-014 8.74653e-015
lhumerus -9.67131 -45.3155 105.225
lradius 44.5288
lwrist 50.8881
lhand -13.0855 67.481
lfingers 7.12502
lthumb -166.989 82.9447
rfemur -35.6462 -2.48534 16.1977
rtibia 30.949
rfoot -8.47232 -5.08956
rtoes -8.11844
lfemur -33.871 5.97521 -10.2378
ltibia 27.7885
lfoot -9.1865 -1.40287
ltoes -19.2082
58
root -11.0548 17.8957 4.71092 -9.29384 82.7571 -28.4872
lowerback 4.80182 1.63322 -1.77147
upperback 5.33603 2.22917 3.84417
thorax 2.60186 1.05413 4.92194
lowerneck -13.6153 -1.27569 1.60116
upperneck 41.3839 1.76509 -4.7914
head 17.6192 0.906202 -1.9914
rclavicle -3.49861e-014 -2.38542e-014
rhumerus -13.264 24.3032 -99.0826
rradius 46.049
rwrist -50.7666
rhand -28.6489 -8.297
rfingers 7.12502
rthumb -2.01258 -38.2673
lclavicle -3.49861e-014 -2.38542e-014
lhumerus -9.65329 -45.2868 105.212
lradius 44.5157
lwrist 50.8524
lhand -12.951 67.4035
lfingers 7.12502
lthumb -166.86 83.0306
rfemur -35.6387 -2.48465 16.1608
rtibia 30.925
rfoot -8.43366 -5.09498
rtoes -7.88264
lfemur -33.8673 5.94954 -10.2669
ltibia 27.7824
lfoot -9.18228 -1.29962
ltoes -19.7349
59
root -11.0544 17.8957 4.71119 -9.29636 82.7619 -28.4946
lowerback 4.79488 1.63197 -1.73013
upperback 5.33763 2.22844 3.81158
thorax 2.60984 1.0553 4.86459
lowerneck -13.6045 -1.29166 1.62352
upperneck 41.4011 1.73159 -4.77954
head 17.6241 0.898414 -1.99642
rclavicle -2.66371e-014 -1.82882e-014
rhumerus -13.2581 24.3129 -99.1261
rradius 46.0442
rwrist -50.8193
rhand -28.6055 -8.41034
rfingers 7.12502
rthumb -1.97067 -38.381
lclavicle -2.66371e-014 -1.82882e-014
lhumerus -9.68157 -45.2877 105.189
lradius 44.534
lwrist 50.8796
lhand -12.8088 67.3627
lfingers 7.12502
lthumb -166.722 83.0802
rfemur -35.6337 -2.51158 16.1714
rtibia 30.9072
rfoot -8.39754 -5.08606
rtoes -7.75603
lfemur -33.8637 5.92652 -10.254
ltibia 27.7668
lfoot -9.19373 -1.19478
ltoes -19.8278
60
root -11.0544 17.8955 4.71356 -9.1699 82.7091 -28.364
lowerback 4.78873 1.65645 -1.74613
upperback 5.35119 2.26056 3.79543
thorax 2.62433 1.07066 4.85633
lowerneck -13.6004 -1.29565 1.6369
upperneck 41.4143 1.71385 -4.75654
head 17.6291 0.896806 -1.99173
rclavicle -1.78906e-014 -1.59028e-015
rhumerus -13.2163 24.1923 -99.1568
rradius 45.9824
rwrist -50.7606
rhand -28.5562 -8.424
rfingers 7.12502
rthumb -1.92312 -38.3951
lclavicle -1.78906e-014 -1.59028e-015
lhumerus -9.65335 -45.2807 105.154
lradius 44.4939
lwrist 50.7831
lhand -12.9882 67.47
lfingers 7.12502
lthumb -166.895 82.9617
rfemur -35.6283 -2.44107 16.1677
rtibia 30.896
rfoot -8.41674 -5.10107
rtoes -7.50164
lfemur -33.8298 5.94713 -10.2293
ltibia 27.7428
lfoot -9.1966 -1.19604
ltoes -19.479
61
root -11.0552 17.8967 4.71479 -9.29974 82.6899 -28.489
lowerback 4.8015 1.65747 -1.77257
upperback 5.36579 2.26167 3.81836
thorax 2.63073 1.07002 4.89536
lowerneck -13.6013 -1.29001 1.68242
upperneck 41.4178 1.73756 -4.82508
head 17.634 0.904585 -2.02767
rclavicle 4.37326e-015 1.90833e-014
rhumerus -13.153 24.0881 -99.1515
rradius 45.8836
rwrist -50.6418
rhand -28.5164 -8.35293
rfingers 7.12502
rthumb -1.88466 -38.3244
lclavicle 4.37326e-015 1.90833e-014
lhumerus -9.59048 -45.2321 105.119
lradius 44.4456
lwrist 50.6465
lhand -13.2042 67.5208
lfingers 7.12502
lthumb -167.104 82.8977
rfemur -35.6298 -2.48996 16.2134
rtibia 30.8877
rfoot -8.44092 -4.99965
rtoes -7.47802
lfemur -33.8138 5.93243 -10.1852
ltibia 27.7223
lfoot -9.11131 -1.31231
ltoes -18.7894
